<svg width="20" height="22" viewBox="0 0 20 22" fill="none" xmlns="http://www.w3.org/2000/svg">
<path d="M14.3333 16.4167V13.1667H6.75V8.83335H14.3333V5.58335L19.75 11L14.3333 16.4167ZM12.1667 0.166687C12.7413 0.166687 13.2924 0.39496 13.6987 0.801289C14.1051 1.20762 14.3333 1.75872 14.3333 2.33335V4.50002H12.1667V2.33335H2.41667V19.6667H12.1667V17.5H14.3333V19.6667C14.3333 20.2413 14.1051 20.7924 13.6987 21.1988C13.2924 21.6051 12.7413 21.8334 12.1667 21.8334H2.41667C1.84203 21.8334 1.29093 21.6051 0.884602 21.1988C0.478273 20.7924 0.25 20.2413 0.25 19.6667V2.33335C0.25 1.75872 0.478273 1.20762 0.884602 0.801289C1.29093 0.39496 1.84203 0.166687 2.41667 0.166687H12.1667Z" fill="black"/>
</svg>
